<?xml version="1.0" encoding="UTF-8"?>
<svg id="Capa_2" data-name="Capa 2" xmlns="http://www.w3.org/2000/svg" viewBox="0 0 244.39 56.23">
  <defs>
    <style>
      .cls-1 {
        font-family: Trocchi-Regular, Trocchi;
        font-size: 40px;
      }

      .cls-1, .cls-2 {
        fill: #542201;
      }

      .cls-3 {
        fill: #fef8e0;
      }

      .cls-4 {
        letter-spacing: -.02em;
      }

      .cls-5 {
        fill: #efb2af;
      }

      .cls-6 {
        letter-spacing: -.02em;
      }
    </style>
  </defs>
  <g id="Capa_1-2" data-name="Capa 1">
    <text class="cls-1" transform="translate(62.28 44.9)"><tspan x="0" y="0">Bu</tspan><tspan class="cls-4" x="53.34" y="0">n</tspan><tspan x="79.28" y="0">ast</tspan><tspan class="cls-6" x="141.76" y="0">e</tspan><tspan x="163.48" y="0">r</tspan></text>
    <path class="cls-5" d="M26.92,53.83C12.05,53.83,0,41.78,0,26.92S12.05,0,26.92,0s26.92,12.05,26.92,26.92-12.05,26.92-26.92,26.92"/>
    <path class="cls-2" d="M42.19,53.47l-1.77-17.04c-.06-.62-.75-.98-1.3-.66l-10.74,6.2c-.54.31-.58,1.08-.08,1.45l13.88,10.05"/>
    <path class="cls-2" d="M6.68,21.05c-.18,1.08-.28,2.19-.28,3.32,0,10.96,8.89,20.1,19.85,20.1s19.85-9.14,19.85-20.1c0-1.13-.1-2.24-.28-3.32H6.68Z"/>
    <ellipse class="cls-3" cx="26.28" cy="21.05" rx="19.56" ry="3.1"/>
    <path class="cls-3" d="M23.32,33.17c0-2.69,1.62-4.86,3.61-4.86,2,0,3.61,2.18,3.61,4.86s-1.62,4.86-3.61,4.86c-2,0-3.61-2.18-3.61-4.86"/>
    <path class="cls-2" d="M27.01,28.77s.93,1.72.43,3.42c-.17.59-.29.66-.15,1.67.1.75.21,1.33.25,1.71.05.36-.06.77-.09.98-.05.45-.23.92-.45.92h-.32s.35-1.06.23-1.7c-.46-2.46-.21-2.98.04-4.12.27-1.27-.27-2.9-.27-2.9h.32Z"/>
    <path class="cls-2" d="M26.11,4.46s-3.19,3.3-1.83,4.79c2.79,3.07,4.28,3.77,4.19,6.79-.11,3.66-5.26,4.45-5.26,4.45,0,0,1.19-.75,2.13-2.03,1.43-1.93.18-4.52-1.3-5.87-1.41-1.28-2.97-2.73-2.78-3.81.24-1.35,3.82-4.2,4.85-4.33Z"/>
    <path class="cls-2" d="M19.73,13.47s2.19,1.69,1.55,2.66c-1.32,1.99-2.11,2.52-1.75,4.27.44,2.13,3.52,2.21,3.52,2.21,0,0-.77-.35-1.45-1.03-1.03-1.02-.52-2.73.16-3.52.49-.57,1.45-1.81,1.23-2.43-.28-.77-2.65-2.16-3.27-2.16Z"/>
    <path class="cls-2" d="M29.41,13.47s2.45,2.02,1.65,2.83c-1.77,1.81-2.46,2.48-1.87,4.54.65,2.23,3.74,2.35,3.74,2.35,0,0-.82-.37-1.54-1.09-1.09-1.09-.6-2.94.17-3.75.81-.84,1.55-1.93,1.31-2.58-.3-.82-2.82-2.3-3.48-2.3Z"/>
  </g>
</svg>